<?xml version="1.0" encoding="utf-8"?>
<!-- Generator: Adobe Illustrator 18.0.0, SVG Export Plug-In . SVG Version: 6.00 Build 0)  -->
<!DOCTYPE svg PUBLIC "-//W3C//DTD SVG 1.1//EN" "http://www.w3.org/Graphics/SVG/1.1/DTD/svg11.dtd">
<svg version="1.1" id="Layer_1" xmlns="http://www.w3.org/2000/svg" xmlns:xlink="http://www.w3.org/1999/xlink" x="0px" y="0px"
	 viewBox="87.2 0 420.9 841.9" enable-background="new 87.2 0 420.9 841.9" xml:space="preserve">
<g id="Layer_2">
</g>
<g id="Layer_1_1_">
	<g>
		<path fill="#9A665D" d="M458.6,0H136.7c-27.3,0-49.5,22.2-49.5,49.5v321.9c0,27.3,22.2,49.5,49.5,49.5h321.9
			c27.3,0,49.5-22.2,49.5-49.5V49.5C508.2,22.2,486,0,458.6,0z M344.5,133.8h-41h-10.2c-10.2,0-10.2,10.2-10.2,10.2v41h61.5
			l-10.9,61.5h-50.6v174.2h-71.7V246.5h-41V185h41v-31.8v-9.1c0,0-10.2-71.7,71.7-71.7h20.5h10.2h30.7V133.8z"/>
	</g>
	<g>
		<path fill="#58B3B2" d="M458.6,421.2H136.7c-27.3,0-49.5,22.2-49.5,49.5v321.9c0,27.3,22.2,49.5,49.5,49.5h321.9
			c27.3,0,49.5-22.2,49.5-49.5V470.7C508.2,443.4,486,421.2,458.6,421.2z M344.5,554.9h-41h-10.2c-10.2,0-10.2,10.2-10.2,10.2v41
			h61.5l-10.9,61.5h-50.6v174.2h-71.7V667.7h-41v-61.5h41v-31.8v-9.1c0,0-10.2-71.7,71.7-71.7h20.5h10.2h30.7V554.9z"/>
	</g>
</g>
</svg>
