<?xml version="1.0" encoding="utf-8"?>
<!-- Generator: Adobe Illustrator 18.0.0, SVG Export Plug-In . SVG Version: 6.00 Build 0)  -->
<!DOCTYPE svg PUBLIC "-//W3C//DTD SVG 1.1//EN" "http://www.w3.org/Graphics/SVG/1.1/DTD/svg11.dtd">
<svg version="1.1" id="Layer_2" xmlns="http://www.w3.org/2000/svg" xmlns:xlink="http://www.w3.org/1999/xlink" x="0px" y="0px"
	 viewBox="0 0 295.8 591.6" enable-background="new 0 0 295.8 591.6" xml:space="preserve">
<path fill-rule="evenodd" clip-rule="evenodd" fill="#9A665D" d="M261,0H34.8C15.6,0,0,15.6,0,34.8V261c0,19.2,15.6,34.8,34.8,34.8
	H261c19.2,0,34.8-15.6,34.8-34.8V34.8C295.8,15.6,280.2,0,261,0z M147.9,87c33.6,0,60.9,27.3,60.9,60.9s-27.3,60.9-60.9,60.9
	c-33.6,0-60.9-27.3-60.9-60.9S114.3,87,147.9,87z M261,243.6c0,9.6-7.8,17.4-17.4,17.4H52.2c-9.6,0-17.4-7.8-17.4-17.4V121.8h30.1
	c-2.6,8.2-4,17-4,26.1c0,48,38.9,87,87,87c48,0,87-39,87-87c0-9.1-1.4-17.9-4-26.1H261V243.6z M261,78.3c0,9.6-7.8,17.4-17.4,17.4
	h-26.1c-9.6,0-17.4-7.8-17.4-17.4V52.2c0-9.6,7.8-17.4,17.4-17.4h26.1c9.6,0,17.4,7.8,17.4,17.4V78.3z"/>
<path fill-rule="evenodd" clip-rule="evenodd" fill="#58B3B2" d="M261,295.8H34.8C15.6,295.8,0,311.4,0,330.6v226.2
	c0,19.2,15.6,34.8,34.8,34.8H261c19.2,0,34.8-15.6,34.8-34.8V330.6C295.8,311.4,280.2,295.8,261,295.8z M147.9,382.8
	c33.6,0,60.9,27.3,60.9,60.9s-27.3,60.9-60.9,60.9c-33.6,0-60.9-27.3-60.9-60.9S114.3,382.8,147.9,382.8z M261,539.4
	c0,9.6-7.8,17.4-17.4,17.4H52.2c-9.6,0-17.4-7.8-17.4-17.4V417.6h30.1c-2.6,8.2-4,17-4,26.1c0,48,38.9,87,87,87c48,0,87-39,87-87
	c0-9.1-1.4-17.9-4-26.1H261V539.4z M261,374.1c0,9.6-7.8,17.4-17.4,17.4h-26.1c-9.6,0-17.4-7.8-17.4-17.4V348
	c0-9.6,7.8-17.4,17.4-17.4h26.1c9.6,0,17.4,7.8,17.4,17.4V374.1z"/>
</svg>
