<?xml version="1.0" encoding="utf-8"?>
<!-- Generator: Adobe Illustrator 18.0.0, SVG Export Plug-In . SVG Version: 6.00 Build 0)  -->
<!DOCTYPE svg PUBLIC "-//W3C//DTD SVG 1.1//EN" "http://www.w3.org/Graphics/SVG/1.1/DTD/svg11.dtd">
<svg version="1.1" id="Layer_1" xmlns="http://www.w3.org/2000/svg" xmlns:xlink="http://www.w3.org/1999/xlink" x="0px" y="0px"
	 viewBox="0 0 295.8 591.6" enable-background="new 0 0 295.8 591.6" xml:space="preserve">
<path fill="#9A665D" d="M261,0H34.8C15.6,0,0,15.6,0,34.8V261c0,19.2,15.6,34.8,34.8,34.8H261c19.2,0,34.8-15.6,34.8-34.8V34.8
	C295.8,15.6,280.2,0,261,0z M91.5,234.9H51.8V107.3h39.7V234.9z M71.6,91.6h-0.3c-12.5,0-20.6-8.9-20.6-19.8
	c0-11.2,8.4-19.8,21.1-19.8c12.8,0,20.6,8.6,20.9,19.8C92.8,82.7,84.7,91.6,71.6,91.6z M244.4,234.9h-39.7v-70.7
	c0-16.4-5.7-27.7-20.1-27.7c-11,0-17.5,7.6-20.4,14.9c-1,2.6-1.3,6.3-1.3,9.9v73.6h-39.7V148c0-15.9-0.5-29.2-1-40.7h34.5l1.8,17.7
	h0.8c5.2-8.4,18-20.6,39.4-20.6c26.1,0,45.7,17.5,45.7,55.1V234.9z"/>
<path fill="#58B3B2" d="M261,295.8H34.8C15.6,295.8,0,311.4,0,330.6v226.2c0,19.2,15.6,34.8,34.8,34.8H261
	c19.2,0,34.8-15.6,34.8-34.8V330.6C295.8,311.4,280.2,295.8,261,295.8z M91.5,530.7H51.8V403.1h39.7V530.7z M71.6,387.4h-0.3
	c-12.5,0-20.6-8.9-20.6-19.8c0-11.2,8.4-19.8,21.1-19.8c12.8,0,20.6,8.6,20.9,19.8C92.8,378.5,84.7,387.4,71.6,387.4z M244.4,530.7
	h-39.7V460c0-16.4-5.7-27.7-20.1-27.7c-11,0-17.5,7.6-20.4,14.9c-1,2.6-1.3,6.3-1.3,9.9v73.6h-39.7v-86.9c0-15.9-0.5-29.2-1-40.7
	h34.5l1.8,17.7h0.8c5.2-8.4,18-20.6,39.4-20.6c26.1,0,45.7,17.5,45.7,55.1V530.7z"/>
</svg>
